<?xml version="1.0" encoding="UTF-8"?>
<svg id="Layer_2" data-name="Layer 2" xmlns="http://www.w3.org/2000/svg" xmlns:xlink="http://www.w3.org/1999/xlink" viewBox="0 0 196.69 202.29">
  <defs>
    <style>
      .cls-1 {
        fill: url(#linear-gradient-5);
      }

      .cls-2 {
        fill: url(#linear-gradient-4);
      }

      .cls-3 {
        fill: url(#linear-gradient-3);
      }

      .cls-4 {
        fill: url(#linear-gradient-2);
      }

      .cls-5 {
        fill: url(#linear-gradient);
      }
    </style>
    <linearGradient id="linear-gradient" x1="61.34" y1="-287.08" x2="61.34" y2="-97.38" gradientTransform="translate(130.07 46.73) rotate(167) scale(.5 .44)" gradientUnits="userSpaceOnUse">
      <stop offset="0" stop-color="#490f8f"/>
      <stop offset=".37" stop-color="#5411a6"/>
      <stop offset=".82" stop-color="#bd90f3"/>
    </linearGradient>
    <linearGradient id="linear-gradient-2" x1="-10.27" y1="186.87" x2="-10.27" y2="436" gradientTransform="translate(110.56 -150.12) scale(.81)" gradientUnits="userSpaceOnUse">
      <stop offset=".26" stop-color="#bd90f3"/>
      <stop offset="1" stop-color="#4d1098"/>
    </linearGradient>
    <linearGradient id="linear-gradient-3" x1="54.88" y1="196.87" x2="-96.7" y2="446" gradientTransform="translate(109.63 -139.4) scale(.74)" gradientUnits="userSpaceOnUse">
      <stop offset=".26" stop-color="#bd90f3"/>
      <stop offset="1" stop-color="#2d0958"/>
    </linearGradient>
    <linearGradient id="linear-gradient-4" x1="68.85" y1="-154.64" x2="-77.72" y2="35.06" gradientTransform="translate(96.81 66.55) rotate(-174) scale(.68 .74)" xlink:href="#linear-gradient-3"/>
    <linearGradient id="linear-gradient-5" x1="-21.38" y1="-175.78" x2="-21.38" y2="13.92" gradientTransform="translate(75.76 60.78) rotate(-174) scale(.64 .71)" xlink:href="#linear-gradient"/>
  </defs>
  <g id="Layer_1-2" data-name="Layer 1">
    <g id="logo-logo">
      <g>
        <path class="cls-5" d="M170.23,81.31c-23,8.37-44.81,20.03-64.57,33.41-17.34,11.74-42.62,32.78-42.19,53.58.45,21.43,28.49,16.66,44.42,12.16-9.8.33-18.51-3.57-22.22-11.98-10.41-23.6,46.41-69.23,84.55-87.16h0Z"/>
        <path class="cls-4" d="M185.66,99.93l-1.02-1.32c-12.89-16.57-15.31-35.59-7.4-58.13l1.17-3.34.02-.07L102.23,0,26.03,37.08l.02.07,1.17,3.34c7.91,22.55,5.49,41.56-7.4,58.13l-1.03,1.32-.03.05.25,1.71c.52,3.57,1.21,7.12,2.05,10.54,3.37,12.54,8.96,25.32,15.34,35.08l.63.97c1.06,1.58,2.09,3.04,3.12,4.45,13.85,18.84,34.12,35.19,60.24,48.59l1.86.96,1.85-.96c26.12-13.4,46.39-29.75,60.24-48.6,1.27-1.73,2.54-3.55,3.75-5.4,6.37-9.76,11.96-22.54,15.34-35.08.85-3.52,1.54-7.06,2.04-10.54l.25-1.71-.03-.05h0l-.03-.02ZM170.95,108.45c-.1.42-.2.84-.31,1.26-.13.53-.26,1.06-.41,1.58-.08.31-.16.61-.25.92-.11.41-.23.83-.36,1.24-6.32,18.82-19.62,36.53-19.62,36.53-.37.45-.73.88-1.11,1.32-2.42,2.86-5.02,5.65-7.79,8.37-.45.45-.92.9-1.38,1.34l-.11.11c-.48.45-.95.89-1.44,1.34-1,.93-2.01,1.83-3.04,2.74-1.04.91-2.09,1.8-3.17,2.69-1.62,1.33-3.28,2.65-4.99,3.95-.57.43-1.14.86-1.72,1.29-1.14.84-2.31,1.68-3.48,2.51-.1.07-.19.14-.29.2-1.08.76-2.18,1.5-3.28,2.24-2.53,1.67-5.12,3.31-7.8,4.91-.66.4-1.32.79-1.99,1.18s-1.35.78-2.02,1.16c-.68.39-1.36.77-2.05,1.15-.69.38-1.38.76-2.08,1.14-.7-.37-1.39-.76-2.08-1.14s-1.37-.76-2.05-1.15c-.67-.38-1.35-.77-2.02-1.16s-1.33-.78-1.99-1.18c-.63-.37-1.25-.75-1.87-1.13-1.45-.88-2.87-1.78-4.26-2.69-1.77-1.14-3.51-2.31-5.2-3.51-.6-.42-1.19-.84-1.79-1.27-.58-.42-1.17-.84-1.75-1.27-.58-.43-1.15-.86-1.72-1.29-1.14-.87-2.26-1.74-3.35-2.62-.55-.44-1.1-.88-1.63-1.32-.54-.45-1.07-.89-1.6-1.34l-.07-.06c-1.03-.88-2.05-1.76-3.04-2.66-.51-.45-1.01-.91-1.51-1.37-.59-.54-1.17-1.09-1.75-1.65-.4-.37-.8-.76-1.19-1.14-2.77-2.72-5.37-5.51-7.79-8.37-.37-.44-.75-.88-1.11-1.32,0,0-13.3-17.71-19.62-36.53l-.08-.22c-.41-1.41-.79-2.84-1.14-4.28-.1-.41-.19-.81-.28-1.23-.12-.51-.24-1.02-.34-1.54-.11-.46-.19-.93-.28-1.4-.1-.46-.19-.93-.27-1.4,6.58-9.41,10.51-19.58,11.81-30.46,1.09-9.21.28-18.93-2.42-29.1l60.39-29.38,60.38,29.38c-2.7,10.17-3.51,19.89-2.42,29.1,1.3,10.88,5.24,21.05,11.81,30.46-.31,1.71-.67,3.39-1.06,5.07h-.02Z"/>
        <path class="cls-3" d="M178.7,100.03l-.94-1.21c-11.81-15.19-14.04-32.62-6.79-53.28l1.07-3.06.02-.07L102.23,8.44,32.39,42.43l.02.07,1.07,3.06c7.25,20.67,5.03,38.09-6.79,53.28l-.95,1.21-.03.04.23,1.57c.48,3.27,1.11,6.53,1.88,9.66,3.09,11.49,8.21,23.2,14.06,32.15l.57.89c.97,1.45,1.91,2.79,2.86,4.08,12.7,17.27,31.27,32.25,55.21,44.54l1.7.88,1.7-.88c23.94-12.28,42.52-27.27,55.21-44.55,1.17-1.59,2.33-3.25,3.44-4.95,5.84-8.95,10.96-20.66,14.06-32.16.78-3.22,1.41-6.47,1.87-9.66l.23-1.57-.03-.04h0v-.02ZM165.21,107.84c-.09.39-.19.77-.28,1.15-.12.48-.24.97-.37,1.44-.07.28-.15.56-.23.84-.1.38-.21.76-.33,1.14-5.8,17.25-17.99,33.48-17.99,33.48-.33.41-.67.81-1.02,1.21-2.22,2.62-4.6,5.18-7.14,7.67-.42.42-.84.83-1.27,1.23l-.1.1c-.44.41-.87.82-1.32,1.23-.92.85-1.85,1.68-2.79,2.52-.95.83-1.92,1.65-2.91,2.46-1.48,1.22-3.01,2.43-4.57,3.62-.52.39-1.05.79-1.58,1.18-1.05.77-2.11,1.54-3.19,2.3-.09.06-.18.13-.27.19-.99.69-1.99,1.38-3.01,2.05-2.31,1.53-4.7,3.04-7.15,4.5-.6.36-1.21.72-1.82,1.08-.62.36-1.24.71-1.85,1.06-.63.36-1.25.71-1.88,1.06-.63.35-1.27.7-1.91,1.04-.64-.34-1.27-.69-1.91-1.04-.63-.35-1.26-.7-1.88-1.06-.62-.35-1.24-.71-1.85-1.06-.61-.36-1.22-.71-1.82-1.08-.58-.34-1.15-.68-1.71-1.03-1.32-.81-2.63-1.63-3.91-2.46-1.62-1.05-3.21-2.12-4.76-3.21-.55-.39-1.09-.77-1.64-1.16-.54-.39-1.07-.77-1.61-1.17-.53-.39-1.06-.79-1.58-1.18-1.04-.8-2.07-1.59-3.07-2.4-.51-.4-1-.8-1.5-1.21-.49-.41-.98-.82-1.47-1.23l-.07-.05c-.95-.8-1.88-1.61-2.78-2.44-.47-.41-.93-.83-1.38-1.26-.54-.5-1.07-1-1.6-1.51-.36-.34-.73-.69-1.09-1.05-2.54-2.49-4.93-5.05-7.14-7.67-.34-.4-.68-.8-1.02-1.21,0,0-12.19-16.23-17.99-33.48l-.07-.2c-.37-1.29-.72-2.6-1.04-3.92-.09-.37-.18-.74-.26-1.12-.11-.47-.22-.94-.31-1.41-.1-.42-.18-.86-.26-1.28-.09-.42-.17-.85-.25-1.28,6.03-8.63,9.64-17.94,10.83-27.91,1-8.44.26-17.35-2.22-26.67l55.35-26.93,55.35,26.93c-2.48,9.32-3.21,18.23-2.22,26.67,1.19,9.97,4.8,19.29,10.83,27.91-.28,1.56-.61,3.11-.97,4.64v-.02Z"/>
        <path class="cls-2" d="M196.69,59.52c-33.67,1.53-67.37,8.96-99.25,20.21-27.98,9.87-70.65,30.57-80.06,64.2-9.69,34.64,28.75,41.51,51.45,42.54-12.8-4.55-22.15-15.32-22.91-30.75-2.12-43.3,93-87.14,150.77-96.2Z"/>
        <path class="cls-1" d="M169.45,61.04c-31.49,1.59-63.03,8.89-92.89,19.87C50.36,90.55,10.38,110.7,1.47,143.25c-9.18,33.52,26.75,40.04,47.97,40.95-11.95-4.35-20.66-14.74-21.32-29.65-1.84-41.86,87.27-84.56,141.32-93.51h0Z"/>
      </g>
    </g>
  </g>
</svg>